<svg xmlns="http://www.w3.org/2000/svg" viewBox="0 0 400 300">
  <rect width="400" height="300" fill="#E8F5E9"/>
  <path d="M160 90 C120 90 95 125 95 165 C95 210 125 240 160 240 C185 240 200 220 200 195
           C200 220 215 240 240 240 C275 240 305 210 305 165 C305 125 280 90 240 90
           C210 90 200 115 200 140 C200 115 190 90 160 90 Z"
        fill="#2E7D32"/>
  <path d="M160 130 Q180 165 160 200 M240 130 Q220 165 240 200"
        stroke="#E8F5E9" stroke-width="8" fill="none" stroke-linecap="round"/>
</svg>
